<svg width="106" height="106" viewBox="0 0 106 106" fill="none" xmlns="http://www.w3.org/2000/svg">
<path fill-rule="evenodd" clip-rule="evenodd" d="M0.174125 25.5963C-0.870232 19.9059 2.89066 14.4452 8.57431 13.3996L80.463 0.174335C86.1467 -0.871277 91.6008 2.89413 92.6451 8.58461L96.3258 28.6396C83.328 31.5264 72.3687 35.9265 61.0336 42.275C54.3218 46.0685 48.0277 50.5594 42.2556 55.6731L26.6582 38.6871L16.5166 42.9017L34.8421 62.7684C32.8835 64.859 30.9775 66.9418 29.1751 69.1169C22.6294 77.1771 17.1969 86.0575 13.0065 95.5171L0.174125 25.5963ZM46.8091 16.833C49.0392 16.4973 51.3186 16.8314 53.3589 17.7932C55.3993 18.7549 57.1088 20.301 58.2713 22.2357C59.4337 24.1705 59.9968 26.4071 59.8893 28.6623C59.7817 30.9176 59.0084 33.0903 57.6672 34.9054C56.326 36.7206 54.4771 38.0966 52.3545 38.8594C50.232 39.6221 47.9311 39.7374 45.7431 39.1905C43.5551 38.6437 41.5783 37.4593 40.0628 35.7873C38.5473 34.1152 37.5613 32.0307 37.2295 29.7974C36.7827 26.8064 37.541 23.7601 39.3375 21.3288C41.134 18.8975 43.8216 17.2803 46.8091 16.833Z" fill="#FFD500"/>
<path d="M22.107 105.887C23.2167 106.052 24.372 106.04 25.537 105.826L67.4571 98.1137L42.5097 71.0744C40.7983 72.9572 39.226 74.8103 37.7512 76.5948C25.3175 91.6057 22.5132 103.8 22.107 105.887Z" fill="#FFD500"/>
<path d="M79.2671 95.941L97.4257 92.6004C103.109 91.5548 106.87 86.0941 105.826 80.4036L98.1262 38.45C75.323 43.7648 60.3891 53.6827 49.663 63.7395L79.2671 95.941Z" fill="#FFD500"/>
</svg>
